<svg viewBox="0 0 50 50" xmlns="http://www.w3.org/2000/svg">
                    <path d="M35.9 19.1C37.15 19.675 38.525 20 40 20C45.525 20 50 15.525 50 10C50 4.475 45.525 0 40 0C34.475 0 30 4.475 30 
                        10C30 11.475 30.325 12.85 30.9 14.1L25 20L19.1 14.1C19.675 12.85 20 11.475 20 10C20 4.475 15.525 0 10 0C4.475 0 0 4.475 
                        0 10C0 15.525 4.475 20 10 20C11.475 20 12.85 19.675 14.1 19.1L20 25L2.5 42.5V50H5L35.9 19.1ZM35 10C35 7.25 37.225 5 40 5C42.775 5 
                        45 7.25 45 10C45 12.75 42.775 15 40 15C37.225 15 35 12.75 35 10ZM5 10C5 7.25 7.225 5 10 5C12.775 5 15 7.25 15 10C15 12.75 12.775 15 10 15C7.225 
                        15 5 12.75 5 10ZM23.75 25C23.75 24.3 24.3 23.75 25 23.75C25.7 23.75 26.25 24.3 26.25 25C26.25 25.7 25.7 26.25 25 26.25C24.3 26.25 23.75 25.7 
                        23.75 25ZM47.5 42.5L32.5 27.5L27.5 32.5L45 50H47.5V42.5Z"/>
        </svg>