                <svg viewBox="0 0 60 60" xmlns="http://www.w3.org/2000/svg">
                    <path d="M18.4167 47.5C15.2084 47.5 12.6126 50.125 12.6126 53.3334C12.6126 56.5417 15.2084 59.1667 18.4167 59.1667C21.6251 59.1667 24.2501 56.5417 24.2501 53.3334C24.2501 50.125 21.6251 47.5 18.4167 47.5ZM0.916748 0.833374V6.66671H6.75008L17.2501 28.8042L13.3126 35.95C12.8459 36.7667 12.5834 37.7292 12.5834 38.75C12.5834 41.9584 15.2084 44.5834 18.4167 44.5834H53.4167V38.75H19.6417C19.2334 38.75 18.9126 38.4292 18.9126 38.0209L19.0001 37.6709L21.6251 32.9167H43.3542C45.5417 32.9167 47.4667 31.7209 48.4584 29.9125L58.9001 10.9834C59.1334 10.575 59.2501 10.0792 59.2501 9.58337C59.2501 7.97921 57.9376 6.66671 56.3334 6.66671H13.1959L10.4542 0.833374H0.916748ZM47.5834 47.5C44.3751 47.5 41.7793 50.125 41.7793 53.3334C41.7793 56.5417 44.3751 59.1667 47.5834 59.1667C50.7917 59.1667 53.4167 56.5417 53.4167 53.3334C53.4167 50.125 50.7917 47.5 47.5834 47.5Z"/>
                </svg>